# xmcd
#
# Track frame offsets:
#	150
#	17655
#	43197
#	70217
#	86152
#	102937
#	129902
#	146350
#	169950
#	196575
#	213602
#	237652
#	262017
#	280102
#
# Disc length: 4151 seconds
#
# Revision: 0
# Processed by: cddbd v1.5.2PL0 Copyright (c) Steve Scherf et al.
# Submitted via: dBpowerAMP V4.0
#
DISCID=ce10350e
DTITLE=Various Artist - Charme Hits
DYEAR=1997
DGENRE=R&B
TTITLE0=Blackbox - Native New Yorker
TTITLE1=Sound of Blackness - Spirit
TTITLE2=Flip da Scrip - You to me
TTITLE3=Zhané feat. Queen Latifah - Request Line
TTITLE4=Look Twice - Funk you up
TTITLE5=Nana - Dakman
TTITLE6=Tara - Work it out
TTITLE7=Beverly Knight - Moving on up (on the right side)
TTITLE8=Rob Base and D.J. E-Z Rock - Break of dawn96
TTITLE9=Crucial Style feat. Flip da Scrip - Hey now
TTITLE10=Massive Joy - Let's get this party started right
TTITLE11=KC - 1 4 Me
TTITLE12=Chaka Demus and Pliers - Every Kinda People
TTITLE13=Sybil - Make it easy on me
EXTD=Charme Hits
EXTT0=
EXTT1=
EXTT2=
EXTT3=
EXTT4=
EXTT5=
EXTT6=
EXTT7=
EXTT8=
EXTT9=
EXTT10=
EXTT11=
EXTT12=
EXTT13=
PLAYORDER=
